<mxfile host="app.diagrams.net" modified="2024-02-04T02:46:53.322Z" agent="Mozilla/5.0 (Windows NT 10.0; Win64; x64) AppleWebKit/537.36 (KHTML, like Gecko) Chrome/121.0.0.0 Safari/537.36 Edg/121.0.0.0" etag="fy105SMNDj42XltVAcBx" version="23.0.2" type="device">
  <diagram name="Page-1" id="13e1069c-82ec-6db2-03f1-153e76fe0fe0">
    <mxGraphModel dx="1948" dy="1090" grid="1" gridSize="10" guides="1" tooltips="1" connect="1" arrows="1" fold="1" page="1" pageScale="1" pageWidth="1100" pageHeight="850" background="none" math="0" shadow="0">
      <root>
        <mxCell id="0" />
        <mxCell id="1" parent="0" />
        <mxCell id="7baba1c4bc27f4b0-2" value=":ControlPrincipal" style="shape=umlLifeline;perimeter=lifelinePerimeter;whiteSpace=wrap;html=1;container=1;collapsible=0;recursiveResize=0;outlineConnect=0;rounded=1;shadow=0;comic=0;labelBackgroundColor=none;strokeWidth=1;fontFamily=Verdana;fontSize=12;align=center;" parent="1" vertex="1">
          <mxGeometry x="230" y="80" width="130" height="760" as="geometry" />
        </mxCell>
        <mxCell id="xDjlaLVxDogiPPQHHWrm-6" value="" style="endArrow=classic;html=1;rounded=0;" edge="1" parent="7baba1c4bc27f4b0-2">
          <mxGeometry width="50" height="50" relative="1" as="geometry">
            <mxPoint x="-70.18965517241395" y="129.9999999999999" as="sourcePoint" />
            <mxPoint x="64.5" y="129.9999999999999" as="targetPoint" />
          </mxGeometry>
        </mxCell>
        <mxCell id="xDjlaLVxDogiPPQHHWrm-7" value="cerrarSesion()" style="edgeLabel;html=1;align=center;verticalAlign=middle;resizable=0;points=[];" vertex="1" connectable="0" parent="xDjlaLVxDogiPPQHHWrm-6">
          <mxGeometry x="-0.3114" relative="1" as="geometry">
            <mxPoint x="14" y="-10" as="offset" />
          </mxGeometry>
        </mxCell>
        <mxCell id="xDjlaLVxDogiPPQHHWrm-8" value="" style="endArrow=classic;html=1;rounded=0;" edge="1" parent="7baba1c4bc27f4b0-2">
          <mxGeometry width="50" height="50" relative="1" as="geometry">
            <mxPoint x="64.5" y="179.9999999999999" as="sourcePoint" />
            <mxPoint x="-65.07142857142867" y="180" as="targetPoint" />
          </mxGeometry>
        </mxCell>
        <mxCell id="xDjlaLVxDogiPPQHHWrm-9" value="&lt;font style=&quot;font-size: 12px;&quot;&gt;muestraConfirmacion()&lt;/font&gt;" style="edgeLabel;html=1;align=center;verticalAlign=middle;resizable=0;points=[];fontSize=16;" vertex="1" connectable="0" parent="xDjlaLVxDogiPPQHHWrm-8">
          <mxGeometry x="-0.1012" y="-1" relative="1" as="geometry">
            <mxPoint x="-7" y="-15" as="offset" />
          </mxGeometry>
        </mxCell>
        <mxCell id="7baba1c4bc27f4b0-3" value=":ServicioUsuario" style="shape=umlLifeline;perimeter=lifelinePerimeter;whiteSpace=wrap;html=1;container=1;collapsible=0;recursiveResize=0;outlineConnect=0;rounded=1;shadow=0;comic=0;labelBackgroundColor=none;strokeWidth=1;fontFamily=Verdana;fontSize=12;align=center;" parent="1" vertex="1">
          <mxGeometry x="660" y="80" width="120" height="760" as="geometry" />
        </mxCell>
        <mxCell id="xDjlaLVxDogiPPQHHWrm-41" value="" style="endArrow=classic;html=1;rounded=0;fontSize=12;startSize=8;endSize=8;curved=1;" edge="1" parent="7baba1c4bc27f4b0-3" target="7baba1c4bc27f4b0-4">
          <mxGeometry width="50" height="50" relative="1" as="geometry">
            <mxPoint x="60" y="410" as="sourcePoint" />
            <mxPoint x="110" y="360" as="targetPoint" />
          </mxGeometry>
        </mxCell>
        <mxCell id="xDjlaLVxDogiPPQHHWrm-42" value="&lt;font style=&quot;font-size: 12px;&quot;&gt;actualiza(usuario)&lt;/font&gt;" style="edgeLabel;html=1;align=center;verticalAlign=middle;resizable=0;points=[];fontSize=16;" vertex="1" connectable="0" parent="xDjlaLVxDogiPPQHHWrm-41">
          <mxGeometry x="0.3891" y="2" relative="1" as="geometry">
            <mxPoint x="-29" y="-11" as="offset" />
          </mxGeometry>
        </mxCell>
        <mxCell id="7baba1c4bc27f4b0-4" value=":DAOUsuario" style="shape=umlLifeline;perimeter=lifelinePerimeter;whiteSpace=wrap;html=1;container=1;collapsible=0;recursiveResize=0;outlineConnect=0;rounded=1;shadow=0;comic=0;labelBackgroundColor=none;strokeWidth=1;fontFamily=Verdana;fontSize=12;align=center;" parent="1" vertex="1">
          <mxGeometry x="790" y="80" width="100" height="760" as="geometry" />
        </mxCell>
        <mxCell id="7baba1c4bc27f4b0-8" value=":VistaPrincipal" style="shape=umlLifeline;perimeter=lifelinePerimeter;whiteSpace=wrap;html=1;container=1;collapsible=0;recursiveResize=0;outlineConnect=0;rounded=1;shadow=0;comic=0;labelBackgroundColor=none;strokeWidth=1;fontFamily=Verdana;fontSize=12;align=center;" parent="1" vertex="1">
          <mxGeometry x="100" y="80" width="120" height="760" as="geometry" />
        </mxCell>
        <mxCell id="xDjlaLVxDogiPPQHHWrm-4" value="" style="endArrow=classic;html=1;rounded=0;" edge="1" parent="7baba1c4bc27f4b0-8">
          <mxGeometry width="50" height="50" relative="1" as="geometry">
            <mxPoint x="-45.5" y="100" as="sourcePoint" />
            <mxPoint x="64.5" y="100" as="targetPoint" />
          </mxGeometry>
        </mxCell>
        <mxCell id="xDjlaLVxDogiPPQHHWrm-5" value="&quot;Cerrar Sesion&quot;" style="edgeLabel;html=1;align=center;verticalAlign=middle;resizable=0;points=[];" vertex="1" connectable="0" parent="xDjlaLVxDogiPPQHHWrm-4">
          <mxGeometry x="0.4273" relative="1" as="geometry">
            <mxPoint x="-23" y="-10" as="offset" />
          </mxGeometry>
        </mxCell>
        <mxCell id="xDjlaLVxDogiPPQHHWrm-1" value="" style="shape=umlActor;verticalLabelPosition=bottom;verticalAlign=top;html=1;outlineConnect=0;" vertex="1" parent="1">
          <mxGeometry x="40" y="40" width="30" height="60" as="geometry" />
        </mxCell>
        <mxCell id="xDjlaLVxDogiPPQHHWrm-2" value="Usuario" style="shape=umlLifeline;perimeter=lifelinePerimeter;whiteSpace=wrap;html=1;container=1;collapsible=0;recursiveResize=0;outlineConnect=0;rounded=1;shadow=0;comic=0;labelBackgroundColor=none;strokeWidth=1;fontFamily=Verdana;fontSize=12;align=center;size=0;" vertex="1" parent="1">
          <mxGeometry x="-10" y="120" width="130" height="720" as="geometry" />
        </mxCell>
        <mxCell id="xDjlaLVxDogiPPQHHWrm-18" value="" style="endArrow=classic;html=1;rounded=0;fontSize=12;startSize=8;endSize=8;curved=1;" edge="1" parent="xDjlaLVxDogiPPQHHWrm-2" source="xDjlaLVxDogiPPQHHWrm-2">
          <mxGeometry width="50" height="50" relative="1" as="geometry">
            <mxPoint x="70" y="219" as="sourcePoint" />
            <mxPoint x="444.5" y="219" as="targetPoint" />
          </mxGeometry>
        </mxCell>
        <mxCell id="xDjlaLVxDogiPPQHHWrm-19" value="&lt;font style=&quot;font-size: 12px;&quot;&gt;&quot;confirmar&quot;&lt;/font&gt;" style="edgeLabel;html=1;align=center;verticalAlign=middle;resizable=0;points=[];fontSize=16;" vertex="1" connectable="0" parent="xDjlaLVxDogiPPQHHWrm-18">
          <mxGeometry x="-0.0711" y="1" relative="1" as="geometry">
            <mxPoint x="-10" y="-10" as="offset" />
          </mxGeometry>
        </mxCell>
        <mxCell id="xDjlaLVxDogiPPQHHWrm-10" value=":VistaCerrarSesion" style="shape=umlLifeline;perimeter=lifelinePerimeter;whiteSpace=wrap;html=1;container=1;collapsible=0;recursiveResize=0;outlineConnect=0;rounded=1;shadow=0;comic=0;labelBackgroundColor=none;strokeWidth=1;fontFamily=Verdana;fontSize=12;align=center;" vertex="1" parent="1">
          <mxGeometry x="370" y="80" width="130" height="760" as="geometry" />
        </mxCell>
        <mxCell id="xDjlaLVxDogiPPQHHWrm-37" value="" style="endArrow=classic;html=1;rounded=0;fontSize=12;startSize=8;endSize=8;curved=1;" edge="1" parent="xDjlaLVxDogiPPQHHWrm-10" target="xDjlaLVxDogiPPQHHWrm-13">
          <mxGeometry width="50" height="50" relative="1" as="geometry">
            <mxPoint x="60" y="320" as="sourcePoint" />
            <mxPoint x="110" y="270" as="targetPoint" />
          </mxGeometry>
        </mxCell>
        <mxCell id="xDjlaLVxDogiPPQHHWrm-38" value="&lt;font style=&quot;font-size: 12px;&quot;&gt;cerrarSesion(usuario)&lt;/font&gt;" style="edgeLabel;html=1;align=center;verticalAlign=middle;resizable=0;points=[];fontSize=16;" vertex="1" connectable="0" parent="xDjlaLVxDogiPPQHHWrm-37">
          <mxGeometry x="0.2843" y="3" relative="1" as="geometry">
            <mxPoint x="-20" y="-11" as="offset" />
          </mxGeometry>
        </mxCell>
        <mxCell id="xDjlaLVxDogiPPQHHWrm-13" value=":ControlCerrarSesion" style="shape=umlLifeline;perimeter=lifelinePerimeter;whiteSpace=wrap;html=1;container=1;collapsible=0;recursiveResize=0;outlineConnect=0;rounded=1;shadow=0;comic=0;labelBackgroundColor=none;strokeWidth=1;fontFamily=Verdana;fontSize=12;align=center;" vertex="1" parent="1">
          <mxGeometry x="510" y="80" width="140" height="760" as="geometry" />
        </mxCell>
        <mxCell id="xDjlaLVxDogiPPQHHWrm-39" value="" style="endArrow=classic;html=1;rounded=0;fontSize=12;startSize=8;endSize=8;curved=1;" edge="1" parent="xDjlaLVxDogiPPQHHWrm-13" target="7baba1c4bc27f4b0-3">
          <mxGeometry width="50" height="50" relative="1" as="geometry">
            <mxPoint x="70" y="370" as="sourcePoint" />
            <mxPoint x="120" y="320" as="targetPoint" />
          </mxGeometry>
        </mxCell>
        <mxCell id="xDjlaLVxDogiPPQHHWrm-40" value="&lt;font style=&quot;font-size: 12px;&quot;&gt;cerrarSesion(usuario)&lt;/font&gt;" style="edgeLabel;html=1;align=center;verticalAlign=middle;resizable=0;points=[];fontSize=16;" vertex="1" connectable="0" parent="xDjlaLVxDogiPPQHHWrm-39">
          <mxGeometry x="0.4194" relative="1" as="geometry">
            <mxPoint x="-32" y="-14" as="offset" />
          </mxGeometry>
        </mxCell>
        <mxCell id="xDjlaLVxDogiPPQHHWrm-47" value="" style="endArrow=classic;html=1;rounded=0;fontSize=12;startSize=8;endSize=8;curved=1;" edge="1" parent="xDjlaLVxDogiPPQHHWrm-13" target="xDjlaLVxDogiPPQHHWrm-10">
          <mxGeometry width="50" height="50" relative="1" as="geometry">
            <mxPoint x="70" y="570" as="sourcePoint" />
            <mxPoint x="120" y="520" as="targetPoint" />
          </mxGeometry>
        </mxCell>
        <mxCell id="xDjlaLVxDogiPPQHHWrm-48" value="&lt;font style=&quot;font-size: 12px;&quot;&gt;muestraInicio()&lt;/font&gt;" style="edgeLabel;html=1;align=center;verticalAlign=middle;resizable=0;points=[];fontSize=16;" vertex="1" connectable="0" parent="xDjlaLVxDogiPPQHHWrm-47">
          <mxGeometry relative="1" as="geometry">
            <mxPoint y="-13" as="offset" />
          </mxGeometry>
        </mxCell>
        <mxCell id="xDjlaLVxDogiPPQHHWrm-43" value="" style="endArrow=classic;html=1;rounded=0;fontSize=12;startSize=8;endSize=8;curved=1;dashed=1;" edge="1" parent="1">
          <mxGeometry width="50" height="50" relative="1" as="geometry">
            <mxPoint x="839.5" y="524" as="sourcePoint" />
            <mxPoint x="719.5" y="524" as="targetPoint" />
          </mxGeometry>
        </mxCell>
        <mxCell id="xDjlaLVxDogiPPQHHWrm-44" value="&lt;font style=&quot;font-size: 11px;&quot;&gt;true&lt;/font&gt;" style="edgeLabel;html=1;align=center;verticalAlign=middle;resizable=0;points=[];fontSize=16;" vertex="1" connectable="0" parent="xDjlaLVxDogiPPQHHWrm-43">
          <mxGeometry relative="1" as="geometry">
            <mxPoint y="-12" as="offset" />
          </mxGeometry>
        </mxCell>
        <mxCell id="xDjlaLVxDogiPPQHHWrm-45" value="" style="endArrow=classic;html=1;rounded=0;fontSize=12;startSize=8;endSize=8;curved=1;dashed=1;" edge="1" parent="1">
          <mxGeometry width="50" height="50" relative="1" as="geometry">
            <mxPoint x="719.5" y="551" as="sourcePoint" />
            <mxPoint x="579.5" y="551" as="targetPoint" />
          </mxGeometry>
        </mxCell>
        <mxCell id="xDjlaLVxDogiPPQHHWrm-46" value="&lt;font style=&quot;font-size: 12px;&quot;&gt;true&lt;/font&gt;" style="edgeLabel;html=1;align=center;verticalAlign=middle;resizable=0;points=[];fontSize=16;" vertex="1" connectable="0" parent="xDjlaLVxDogiPPQHHWrm-45">
          <mxGeometry relative="1" as="geometry">
            <mxPoint y="-11" as="offset" />
          </mxGeometry>
        </mxCell>
      </root>
    </mxGraphModel>
  </diagram>
</mxfile>
